<?xml version="1.0" encoding="utf-8"?>
<!-- Generator: Adobe Illustrator 24.3.0, SVG Export Plug-In . SVG Version: 6.00 Build 0)  -->
<svg version="1.1" id="Layer_1" xmlns="http://www.w3.org/2000/svg" xmlns:xlink="http://www.w3.org/1999/xlink" x="0px" y="0px"
	 viewBox="0 0 512 512" style="enable-background:new 0 0 512 512;" xml:space="preserve">
<style type="text/css">
	.st0{fill:#FFFFFF;}
</style>
<path class="st0" d="M350.9,44.8l-107.2,60.4L131.4,285c-9,14.4,5.5,32.1,21.4,26l96-36.5l-87.2,192.7l222.4-240l-119.2,5.1
	l67.8-83.8l-70.1,23.4L350.9,44.8z"/>
<g>
	<path class="st0" d="M108.5,329.2c-3.1,0-6-1.8-7.3-4.8c-37.8-86.3,1.6-187.3,87.9-225.1c4-1.8,8.8,0.1,10.5,4.1
		c1.8,4-0.1,8.8-4.1,10.5c-78.2,34.3-114,125.8-79.7,204c1.8,4-0.1,8.8-4.1,10.5C110.6,329,109.5,329.2,108.5,329.2z"/>
</g>
<g>
	<path class="st0" d="M308,418.2c-3.3,0-6.4-2.1-7.6-5.4c-1.5-4.2,0.8-8.7,4.9-10.2c39.1-13.6,70.5-41.6,88.5-78.9
		c18-37.2,20.4-79.3,6.8-118.3c-1.5-4.2,0.8-8.7,4.9-10.2c4.2-1.5,8.7,0.8,10.2,4.9c15,43.1,12.4,89.5-7.5,130.6
		c-19.9,41.1-54.5,72-97.6,87C309.7,418.1,308.8,418.2,308,418.2z"/>
</g>
</svg>
